{"title":"Narcopolis 2015 720p BluRay","uid":12522377,"size":4688267764,"categoryP":"video","categoryS":"hd___movies","magnet":"?xt=urn:btih:01213fc1163cad4fa6fb79c0ec4e433338505569&amp;dn=Narcopolis+2015+720p+BluRay&amp;tr=udp%3A%2F%2Ftracker.leechers-paradise.org%3A6969&amp;tr=udp%3A%2F%2Fzer0day.ch%3A1337&amp;tr=udp%3A%2F%2Fopen.demonii.com%3A1337&amp;tr=udp%3A%2F%2Ftracker.coppersurfer.tk%3A6969&amp;tr=udp%3A%2F%2Fexodus.desync.com%3A6969","seeders":0,"leechers":0,"uploader":"Joker__TPB","files":3,"time":1443906012,"description":"===================================================================================\r\nNarcopolis is a futuristic thriller set in the near future where all classes of drugs have been legalized. Frank Grieves is a 'Dreck'| a roaming narc responsible for\r\nkeeping the black market dealers off the streets and the licenced drugs companies rich. When he discovers a rogue substance in an unidentified corpse| evidence\r\nsuggests that Ambro| the most powerful drug manufacturer of all| are conducting secret tests on an experimental narcotic. Grieves discovers a second victim - this\r\ntime alive - but she disappears and he is suddenly taken off the case by his superiors. As his options drain away| it's clear that legalization has come at a heavy\r\nprice. Is it too late to save the city?\r\n===================================================================================\r\nscreens: \nhttp://extraimago.com/image/huY\r\n===================================================================================\r\nmedia info:\r\n\r\nVideo\r\nID                                       : 1\r\nFormat                                   : AVC\r\nFormat/Info                              : Advanced Video Codec\r\nFormat profile                           :   \r\nFormat settings, CABAC                   : Yes\r\nFormat settings, ReFrames                : 5 frames\r\nCodec ID                                 : V_MPEG4/ISO/AVC\r\nDuration                                 : 1h 35mn\r\nBit rate                                 : 5 024 Kbps\r\nWidth                                    : 1 280 pixels\r\nHeight                                   : 536 pixels\r\nDisplay aspect ratio                     : 2.40:1\r\nFrame rate mode                          : Constant\r\nFrame rate                               : 23.976 fps\r\nColor space                              : YUV\r\nChroma subsampling                       : 4:2:0\r\nBit depth                                : 8 bits\r\nScan type                                : Progressive\r\nBits/(Pixel*Frame)                       : 0.305\r\nStream size                              : 3.27 GiB (75%)\r\nWriting library                          : x264 core 148 r2597 e86f3a1\r\nEncoding settings                        : cabac=1 / ref=5 / deblock=1:0:0 / analyse=0x3:0x113 / me=umh / subme=7 / psy=1 / psy_rd=1.00:0.00 / mixed_ref=1 / me_range=16 / chroma_me=1 / trellis=1 / 8x8dct=1 / cqm=0 / deadzone=21,11 / fast_pskip=1 / chroma_qp_offset=-2 / threads=6 / lookahead_threads=1 / sliced_threads=0 / nr=0 / decimate=1 / interlaced=0 / bluray_compat=0 / constrained_intra=0 / bframes=3 / b_pyramid=2 / b_adapt=1 / b_bias=0 / direct=1 / weightb=0 / open_gop=0 / weightp=2 / keyint=240 / keyint_min=23 / scenecut=40 / intra_refresh=0 / rc_lookahead=40 / rc=2pass / mbtree=0 / bitrate=5024 / ratetol=1.0 / qcomp=0.60 / qpmin=10 / qpmax=51 / qpstep=4 / cplxblur=20.0 / qblur=0.5 / vbv_maxrate=62500 / vbv_bufsize=78125 / nal_hrd=none / filler=0 / ip_ratio=1.40 / pb_ratio=1.30 / aq=1:1.00\r\nLanguage                                 : English\r\nDefault                                  : Yes\r\nForced                                   : No\r\nDURATION                                 : 01:35:44.406000000\r\nNUMBER_OF_FRAMES                         : 137728\r\nNUMBER_OF_BYTES                          : 3602973666\r\n_STATISTICS_WRITING_APP                  : mkvmerge v8.4.0 ('A better way to fly') 32bit\r\n_STATISTICS_WRITING_DATE_UTC             : 2015-10-01 00:39:02\r\n_STATISTICS_TAGS                         : BPS DURATION NUMBER_OF_FRAMES NUMBER_OF_BYTES\r\n\r\nAudio\r\nID                                       : 2\r\nFormat                                   : DTS\r\nFormat/Info                              : Digital Theater Systems\r\nMode                                     : 16\r\nFormat settings, Endianness              : Big\r\nCodec ID                                 : A_DTS\r\nDuration                                 : 1h 35mn\r\nBit rate mode                            : Constant\r\nBit rate                                 : 1 509 Kbps\r\nChannel(s)                               : 6 channels\r\nChannel positions                        : Front: L C R, Side: L R, LFE\r\nSampling rate                            : 48.0 KHz\r\nBit depth                                : 24 bits\r\nCompression mode                         : Lossy\r\nStream size                              : 1.01 GiB (23%)\r\nLanguage                                 : English\r\nDefault                                  : Yes\r\nForced                                   : No\r\n\r\nText\r\nID                                       : 3\r\nFormat                                   : UTF-8\r\nCodec ID                                 : S_TEXT/UTF8\r\nCodec ID/Info                            : UTF-8 Plain Text\r\nLanguage                                 : English\r\nDefault                                  : No\r\nForced                                   : No\r\n\r\n===================================================================================","torrent":{"xt":"urn:btih:01213fc1163cad4fa6fb79c0ec4e433338505569","amp;dn":"Narcopolis+2015+720p+BluRay","amp;tr":["udp%3A%2F%2Ftracker.leechers-paradise.org%3A6969","udp%3A%2F%2Fzer0day.ch%3A1337","udp%3A%2F%2Fopen.demonii.com%3A1337","udp%3A%2F%2Ftracker.coppersurfer.tk%3A6969","udp%3A%2F%2Fexodus.desync.com%3A6969"],"infoHash":"01213fc1163cad4fa6fb79c0ec4e433338505569","infoHashBuffer":{"type":"Buffer","data":[1,33,63,193,22,60,173,79,166,251,121,192,236,78,67,51,56,80,85,105]},"announce":[],"urlList":[]}}